<svg id="图层_1" data-name="图层 1" xmlns="http://www.w3.org/2000/svg" viewBox="0 0 500 500"><defs><style>.cls-1{fill:#efb930;}.cls-2{fill:#212529;}</style></defs><title>anosi</title><rect class="cls-1" width="500" height="500"/><path class="cls-2" d="M134.25,166.62h40L237.5,333.38H185l-5.5-15H129l-5.5,15H71Zm-26,146.76,4.75-12.5h82.5l4.75,12.5h7L159,186.62h-9.5L101.25,313.38Zm46-120.76,39,102.26h-78Zm11.25,89-11.25-29.24L143,281.62Z" transform="translate(0 0)"/><path class="cls-2" d="M202.5,166.62H259l19.25,58.26,19.25-58.26H334l19.25,58.26,19.25-58.26H429L374,333.38H332.5l-16.75-50.5L299,333.38H257.5Zm80,146.76,33.25-104.76L349,313.38h6.25L397,186.62h-6.75l-38,115.26-36.5-115.26-36.5,115.26-38-115.26H234.5l41.75,126.76Z" transform="translate(0 0)"/></svg>