<svg xmlns="http://www.w3.org/2000/svg" viewBox="0 0 1024 1024"><defs><style>.cls-1{fill:#baaa61;}.cls-2{fill:#fff;}</style></defs><title>cgtn</title><g id="图层_2" data-name="图层 2"><rect class="cls-1" width="1024" height="1024"/></g><g id="图层_1" data-name="图层 1"><path class="cls-2" d="M720.22,512.72q0,49.23,0,98.48c0,7.65.1,7.74,7.9,7.76q16,0,32,0c7.48,0,7.67-.19,7.67-7.49q0-40.74,0-81.49c0-12.83,0-25.66,0-38.49,0-1.39-.7-3.43,1.06-4s2.35,1.48,3.38,2.49a9.68,9.68,0,0,1,.64.77q51.87,61.86,103.71,123.74c2.43,2.91,5.12,4.5,9,4.46,9.83-.1,19.67-.15,29.49,0,4.41.09,5.76-1.8,5.75-6q-.11-100,0-200c0-4.66-1.83-6.11-6.25-6-10.66.18-21.33.05-32,.05-9.44,0-9.45,0-9.45,9.22q0,58,0,116c0,1.43.64,3.42-.89,4.12-1.71.78-2.51-1.23-3.41-2.29q-22.49-26.48-44.9-53c-19.05-22.51-38.18-45-57.09-67.59-3.84-4.59-8-6.87-14.17-6.54-8.47.47-17,.09-25.49.13-6.65,0-7,.34-7,7.18Q720.22,463.48,720.22,512.72ZM502,555.34c0-12.5-.09-25,.05-37.49,0-4.26-1.64-6-5.91-6-10.84.13-21.67,0-32.5.05-5.86,0-6.42.65-6.44,6.78,0,15.17-.14,30.33.06,45.5.06,4.36-1.61,6.61-5.6,8.16a83.48,83.48,0,0,1-43.73,4.53c-16.94-2.62-31.46-9.67-42.14-23.48-11.21-14.48-13.88-31.17-11.65-48.76,2.52-19.87,11.53-36.06,29.16-46.57,14.41-8.58,30.23-10.89,46.71-9.79a144.62,144.62,0,0,1,44.1,10.35c3.38,1.34,5.21.49,6.76-2.65q7.29-14.79,14.92-29.42c1.67-3.19.86-4.64-2.3-6-30.71-13.54-62.53-19.78-96-14.29-25,4.11-47.07,14.48-64.65,33.15-20.62,21.91-29.87,48.28-28.57,78.09,1.85,42.56,22,73.64,60.38,92.38,23,11.22,47.54,13.66,72.69,10.85,21.45-2.4,41.76-8.37,60.08-20.25a9.12,9.12,0,0,0,4.65-8.63C501.84,579.68,502,567.51,502,555.34ZM220.76,621.76c25.6.37,49.43-6.11,71.93-18.08,3.79-2,4.37-4.25,2.93-8-3.48-9.18-6.65-18.49-10-27.73-2.62-7.25-2.69-7.32-9.74-3.72-19.83,10.16-40.48,16.07-63.06,12.93-60.21-8.39-69.06-70.79-44.74-102.88,16-21.11,38.5-27.33,63.8-25.91a104.06,104.06,0,0,1,39.8,10.72c3.5,1.7,5.34,1,7-2.48,4.7-9.57,9.53-19.08,14.62-28.45,2-3.72,1.18-5.41-2.48-7.22-26.8-13.24-54.9-19.26-84.75-15.63-31.42,3.83-58.24,16.53-77.76,42.13-18,23.64-24.52,50.68-21.24,80,3.08,27.69,15,50.95,36.48,68.89C165.9,615,192.38,621.41,220.76,621.76ZM582.3,533.09v41q0,19.5,0,39c0,3,.19,5.83,4.3,5.82h40c3.17,0,4.47-1.75,4.48-4.73,0-1.83,0-3.67,0-5.5q0-76.75,0-153.5c0-7,.4-7.41,7.3-7.42,18.17,0,36.34-.09,54.5,0,4.19,0,6.08-1.32,6-5.75q-.3-14.51,0-29c.11-4.65-1.85-6.06-6.26-6.05q-86.25.13-172.5,0c-4.86,0-6.46,1.95-6.36,6.57.2,9,0,18,.06,27,0,6.69.49,7.17,7.06,7.18,18,0,36,0,54,0,7,0,7.34.32,7.34,7.34Q582.32,494.09,582.3,533.09Z"/></g></svg>