<svg id="图层_1" data-name="图层 1" xmlns="http://www.w3.org/2000/svg" viewBox="0 0 500 500"><defs><style>.cls-1{fill:#9c3;}</style></defs><title>g2s</title><rect width="500" height="500"/><path class="cls-1" d="M250.33,172H392.79c8.37,0,14.11,5.74,14.11,14.16q0,37.57,0,75.13,0,26.6,0,53.18c0,5-1.77,9-5.92,11.9a13.75,13.75,0,0,1-8.14,2.27q-23.14,0-46.29,0H303.44c-7.82,0-13.56-5-13.92-12.78a12.89,12.89,0,0,1,12.32-13.46c10.1,0,20.2,0,30.29,0,11.11,0,22.23.06,33.34,0,3.39,0,6.78-.5,9.65-2.66,3.31-2.51,5.3-5.74,5.3-10q0-39.42,0-78.83a12.59,12.59,0,0,0-11.66-12.19c-3.35-.26-6.69-.23-10-.23q-111.59,0-223.15,0a21.51,21.51,0,0,0-6.53.8,12.57,12.57,0,0,0-8.89,11.88q-.08,30.16,0,60.32c0,6.09,0,12.17,0,18.26a12.72,12.72,0,0,0,10.56,12.16,41.3,41.3,0,0,0,6.57.54c28.31,0,56.62,0,84.92-.05,4.31,0,8.45-.87,11.58-4.24a12.15,12.15,0,0,0,3.5-8.46q0-25.73,0-51.46c0-6.89,4-12.25,10.36-13.7a13.14,13.14,0,0,1,15.88,11,27.1,27.1,0,0,1,.22,3.82q0,37.57,0,75.14c0,6.73-3.67,12-9.71,13.71a16.62,16.62,0,0,1-4.71.53l-90.61,0q-25.47,0-50.93,0c-5.36,0-9.57-2.09-12.31-6.8a11.53,11.53,0,0,1-1.62-5.92q0-65.55,0-131.08A13.05,13.05,0,0,1,105,172.19a32.79,32.79,0,0,1,4.75-.23H250.33Z"/></svg>