<svg xmlns="http://www.w3.org/2000/svg" viewBox="0 0 500 500"><defs><style>.cls-1{fill:#0048a2;}.cls-2{fill:#fff;}</style></defs><title>sttv</title><g id="图层_1" data-name="图层 1"><rect class="cls-1" width="500" height="500"/></g><g id="图层_2" data-name="图层 2"><path class="cls-2" d="M29.52,321.92c.8-.32,1.31.24,1.86.54,22.85,12.7,47.51,19.45,73.32,22.53a236,236,0,0,0,39.41,1.31,299.57,299.57,0,0,0,71.69-12.52c20.32-6.1,40.12-13.48,58.3-24.65,11.73-7.21,22.53-15.52,30.36-27.07,5.16-7.61,8.65-15.85,7.1-25.35-1.68-10.28-9.75-17.63-20.66-19.1-11.66-1.58-23.26-.55-34.86.7-11.83,1.27-23.5,3.88-35.43,4.28a25.51,25.51,0,0,1-7.93-.78c-6.21-1.75-8-7.79-3.76-12.67,3.24-3.71,7.34-6.25,11.66-8.46,14.7-7.51,30.38-12.36,46.19-16.79,32.37-9.07,65.27-15.57,98.49-20.58,19.76-3,39.66-5.05,59.18-9.46,11.3-2.55,22.54-5.34,33.1-10.31a25.92,25.92,0,0,0,6.95-4.38c1.36-1.29,2.16-1,3.16.41a17.07,17.07,0,0,1,.62,19.29c-3.83,6.38-9.58,10.81-15.63,14.84-6.36,4.23-13.46,6.92-20.57,9.6-4.68,1.76-9.34,3.62-13.43,6.56-8.65,6.23-12.28,15.37-14,25.37-2.1,12.39-2.85,25-5.55,37.29a130.65,130.65,0,0,1-43,72.37c-21.45,18.65-46.46,30.33-73.63,37.76-19.09,5.21-38.59,8.09-58.26,10.05A318.74,318.74,0,0,1,178.29,394c-33.39-1.48-65.51-8.39-95.5-23.74-7.46-3.82-14.28-8.3-20.15-14.47-10.26-10.82-21-21.17-31.53-31.74C30.51,323.4,29.6,323,29.52,321.92Z"/><path class="cls-2" d="M235.11,278.2c-.48,1.2-1.32,1.19-2,1.41-27.1,8.9-54.56,16.42-82.89,20.28-18.13,2.47-36.32,3.53-54.48.19C83.09,297.74,71.39,293.3,62,284c-8.29-8.26-12.31-18.48-13.6-29.88-2-17.8,4.58-32.82,15.48-46.3,11.17-13.81,25.29-24.08,40.46-33,17.75-10.41,36.59-18.42,56-25.11,33.76-11.63,68.47-19.1,103.8-23.87,11.8-1.59,23.65-2.71,35.5-3.82a11.89,11.89,0,0,1,4.67.65c.62.19,1.34.45,1.36,1.27s-.68,1.09-1.29,1.35c-3.5,1.49-7.26,1.75-11,2.3-2.72.4-5.44.75-8.15,1.19-.62.1-1.52.17-1.67.9-.19,1,.82,1.1,1.41,1.49,1,.66,2.8.8,2.6,2.29-.21,1.71-2.1,1.72-3.41,2-3.74.73-7.53,1.29-11.88,2a5.78,5.78,0,0,0,3.59,1,101.45,101.45,0,0,0,18.68-1.16c22.23-3,44.5-5,67-4.45,5.71.15,11.49-.45,16.85-2.91,1.46-.66,3-.16,4.4.25s1,1.38.16,2.09a15.81,15.81,0,0,1-5,2.77c-4.06,1.42-8.32,1.67-12.54,2-5.06.43-10.14.65-15.2,1-1.52.12-3.48-.27-3.41,2.41,0,.88-1.17,1.06-2,1.22-1.86.35-3.73.67-6.06,1.08,2.23,1.51,4.38,1.51,6.45,1.59,14.66.63,29.09-1.26,43.4-4.24q7.83-1.62,15.59-3.53a29,29,0,0,0,10.1-4.2c.52-.37,1.17-.91,1.78-.29s.08,1.27-.26,1.8c-1.72,2.67-4.33,4.35-7,5.92a62.87,62.87,0,0,1-16.25,6.31c-17.59,4.63-35.54,7.36-53.43,10.44-24.86,4.29-49.93,7.32-74.64,12.51-28.53,6-56.44,14-82.8,26.71-15.09,7.26-29.38,15.82-40.69,28.49-7.34,8.23-12.31,17.51-12.13,29,.17,11.33,5.38,19.38,15.28,24.44,10.54,5.39,21.92,6.59,33.55,6A107.32,107.32,0,0,0,199,280.87a27.9,27.9,0,0,0,7.6-3.08,9.21,9.21,0,0,1,9.25-.74c4,1.84,8.4,1.91,12.76,1.63C230.72,278.55,232.83,278.37,235.11,278.2Z"/><path class="cls-2" d="M317.11,125.53a16.26,16.26,0,0,1-4.66-1c-1.33-.66-1.53-1.75-.26-2.45,4-2.22,8.31-3.29,12.89-1.92a2.28,2.28,0,0,1,1.76,2.17c0,1.07-.86,1.54-1.71,1.92C322.55,125.4,319.73,125,317.11,125.53Z"/><path class="cls-2" d="M337,123.6c-1.84-.11-3.93,0-4.11-1.92-.21-2.11,2-2.34,3.59-2.63,2.47-.43,5.09.78,4.86,2.29C341,124,338.51,123.19,337,123.6Z"/></g></svg>